<!DOCTYPE svg PUBLIC "-//W3C//DTD SVG 1.1//EN" "http://www.w3.org/Graphics/SVG/1.1/DTD/svg11.dtd">
<!-- Uploaded to: SVG Repo, www.svgrepo.com, Transformed by: SVG Repo Mixer Tools -->
<svg width="64px" height="64px" viewBox="0 0 512 512" enable-background="new 0 0 512 512" id="Layer_1" version="1.1" xml:space="preserve" xmlns="http://www.w3.org/2000/svg" xmlns:xlink="http://www.w3.org/1999/xlink" fill="#000000">
<g id="SVGRepo_bgCarrier" stroke-width="0"/>
<g id="SVGRepo_tracerCarrier" stroke-linecap="round" stroke-linejoin="round"/>
<g id="SVGRepo_iconCarrier"> <g> <g> <circle cx="328.904" cy="312.305" fill="#3C74BA" r="47.525"/> <path d="M328.904,369.83c-31.72,0-57.525-25.806-57.525-57.525c0-31.719,25.806-57.523,57.525-57.523 c31.719,0,57.524,25.805,57.524,57.523C386.429,344.024,360.623,369.83,328.904,369.83z M328.904,274.781 c-20.691,0-37.525,16.833-37.525,37.523c0,20.691,16.834,37.525,37.525,37.525s37.524-16.834,37.524-37.525 C366.429,291.614,349.596,274.781,328.904,274.781z" fill="#444B54"/> </g> <g> <circle cx="328.904" cy="167.836" fill="#3C74BA" r="47.525"/> <path d="M328.904,225.359c-31.72,0-57.525-25.805-57.525-57.523c0-31.72,25.806-57.525,57.525-57.525 c31.719,0,57.524,25.806,57.524,57.525C386.429,199.555,360.623,225.359,328.904,225.359z M328.904,130.311 c-20.691,0-37.525,16.834-37.525,37.525c0,20.69,16.834,37.523,37.525,37.523s37.524-16.833,37.524-37.523 C366.429,147.145,349.596,130.311,328.904,130.311z" fill="#444B54"/> </g> <g> <path d="M243,87.93V424.07c0,6.619-5.37,12-12,12H58.51c-6.62,0-12-5.381-12-12V87.93c0-6.629,5.38-12,12-12H231 C237.63,75.93,243,81.301,243,87.93z" fill="#65A0D6"/> <path d="M231,446.07H58.51c-12.131,0-22-9.869-22-22V87.93c0-12.131,9.869-22,22-22H231c12.131,0,22,9.869,22,22 V424.07C253,436.201,243.131,446.07,231,446.07z M58.51,85.93c-1.103,0-2,0.897-2,2V424.07c0,1.103,0.897,2,2,2H231 c1.103,0,2-0.897,2-2V87.93c0-1.103-0.897-2-2-2H58.51z" fill="#444B54"/> </g> <g> <path d="M315.7,304.09c-2.631,0-5.21-1.07-7.07-2.93c-1.86-1.86-2.93-4.44-2.93-7.07s1.069-5.21,2.93-7.07 c1.86-1.859,4.439-2.93,7.07-2.93c2.64,0,5.21,1.07,7.069,2.93c1.87,1.86,2.931,4.44,2.931,7.07s-1.061,5.21-2.931,7.07 C320.91,303.02,318.34,304.09,315.7,304.09z" fill="#444B54"/> </g> <g> <line fill="#3C74BA" x1="340.811" x2="340.811" y1="294.092" y2="294.092"/> <path d="M340.81,304.09c-2.63,0-5.21-1.07-7.069-2.93c-1.86-1.86-2.931-4.431-2.931-7.07 c0-2.63,1.07-5.21,2.931-7.07c1.859-1.859,4.439-2.93,7.069-2.93s5.21,1.07,7.07,2.93c1.86,1.86,2.93,4.44,2.93,7.07 s-1.069,5.21-2.93,7.07C346.02,303.02,343.439,304.09,340.81,304.09z" fill="#444B54"/> </g> <g> <path d="M317.689,318.313c0,6.742,5.465,12.205,12.209,12.205c6.74,0,12.205-5.463,12.205-12.205H317.689z" fill="#3C74BA"/> <path d="M329.898,340.518c-12.246,0-22.209-9.961-22.209-22.205c0-5.522,4.478-10,10-10h24.414 c5.522,0,10,4.478,10,10C352.104,330.557,342.143,340.518,329.898,340.518z" fill="#444B54"/> </g> <g> <path d="M316,161.25c-2.63,0-5.21-1.07-7.07-2.931c-1.86-1.859-2.93-4.439-2.93-7.069 c0-2.641,1.069-5.21,2.93-7.07s4.44-2.93,7.07-2.93s5.21,1.069,7.069,2.93c1.86,1.86,2.931,4.44,2.931,7.07 s-1.07,5.21-2.931,7.069C321.21,160.18,318.63,161.25,316,161.25z" fill="#444B54"/> </g> <g> <line fill="#3C74BA" x1="341.105" x2="341.105" y1="151.248" y2="151.248"/> <path d="M341.109,161.25c-2.63,0-5.21-1.07-7.079-2.931c-1.86-1.859-2.921-4.439-2.921-7.069 c0-2.641,1.061-5.21,2.921-7.07c1.869-1.86,4.439-2.93,7.079-2.93c2.631,0,5.2,1.069,7.07,2.93c1.86,1.86,2.93,4.44,2.93,7.07 s-1.069,5.21-2.93,7.069C346.31,160.18,343.74,161.25,341.109,161.25z" fill="#444B54"/> </g> <g> <path d="M341.811,184.658c0-7.129-5.777-12.906-12.908-12.906c-7.127,0-12.904,5.777-12.904,12.906H341.811z" fill="#3C74BA"/> <path d="M341.811,194.658h-25.813c-5.522,0-10-4.478-10-10c0-12.631,10.274-22.906,22.904-22.906 c12.632,0,22.908,10.275,22.908,22.906C351.811,190.181,347.333,194.658,341.811,194.658z" fill="#444B54"/> </g> <g> <circle cx="328.904" cy="167.836" fill="#3C74BA" r="47.525"/> <path d="M328.904,225.359c-31.72,0-57.525-25.805-57.525-57.523c0-31.72,25.806-57.525,57.525-57.525 c31.719,0,57.524,25.806,57.524,57.525C386.429,199.555,360.623,225.359,328.904,225.359z M328.904,130.311 c-20.691,0-37.525,16.834-37.525,37.525c0,20.69,16.834,37.523,37.525,37.523s37.524-16.833,37.524-37.523 C366.429,147.145,349.596,130.311,328.904,130.311z" fill="#444B54"/> </g> <g> <circle cx="328.904" cy="312.305" fill="#3C74BA" r="47.525"/> <path d="M328.904,369.83c-31.72,0-57.525-25.806-57.525-57.525c0-31.719,25.806-57.523,57.525-57.523 c31.719,0,57.524,25.805,57.524,57.523C386.429,344.024,360.623,369.83,328.904,369.83z M328.904,274.781 c-20.691,0-37.525,16.833-37.525,37.523c0,20.691,16.834,37.525,37.525,37.525s37.524-16.834,37.524-37.525 C366.429,291.614,349.596,274.781,328.904,274.781z" fill="#444B54"/> </g> <g> <path d="M155.089,416.922h-20.667c-5.523,0-10-4.478-10-10s4.477-10,10-10h20.667c5.523,0,10,4.478,10,10 S160.612,416.922,155.089,416.922z" fill="#444B54"/> </g> <g> <path d="M231.001,446.07H58.511c-12.131,0-22-11.109-22-24.766v-24.143c0-13.657,9.869-24.768,22-24.768h172.49 c12.131,0,22,11.11,22,24.768v24.143C253.001,434.961,243.132,446.07,231.001,446.07z M230.977,392.392l-172.466,0.003 c-0.464,0.12-2,1.788-2,4.768v24.143c0,2.979,1.536,4.646,2.023,4.769l172.453-0.003c0.499-0.143,2.014-1.808,2.014-4.766v-24.143 C233.001,394.183,231.465,392.515,230.977,392.392z" fill="#444B54"/> </g> <g> <path d="M155.089,118.984h-20.667c-5.523,0-10-4.478-10-10s4.477-10,10-10h20.667c5.523,0,10,4.478,10,10 S160.612,118.984,155.089,118.984z" fill="#444B54"/> </g> <g> <path d="M231,446.07H58.51c-12.131,0-22-9.869-22-22V87.93c0-12.131,9.869-22,22-22H231c12.131,0,22,9.869,22,22 V424.07C253,436.201,243.131,446.07,231,446.07z M58.51,85.93c-1.103,0-2,0.897-2,2V424.07c0,1.103,0.897,2,2,2H231 c1.103,0,2-0.897,2-2V87.93c0-1.103-0.897-2-2-2H58.51z" fill="#444B54"/> </g> <g> <path d="M493,170.736h-89.333c-5.522,0-10-4.478-10-10s4.478-10,10-10H493c5.522,0,10,4.478,10,10 S498.522,170.736,493,170.736z" fill="#444B54"/> </g> <g> <path d="M437,208.736h-33.333c-5.522,0-10-4.478-10-10s4.478-10,10-10H437c5.522,0,10,4.478,10,10 S442.522,208.736,437,208.736z" fill="#444B54"/> </g> <g> <path d="M493,309.313h-89.333c-5.522,0-10-4.478-10-10s4.478-10,10-10H493c5.522,0,10,4.478,10,10 S498.522,309.313,493,309.313z" fill="#444B54"/> </g> <g> <path d="M437,347.313h-33.333c-5.522,0-10-4.478-10-10s4.478-10,10-10H437c5.522,0,10,4.478,10,10 S442.522,347.313,437,347.313z" fill="#444B54"/> </g> <g> <path d="M315.7,304.09c-2.631,0-5.21-1.07-7.07-2.93c-1.86-1.86-2.93-4.44-2.93-7.07s1.069-5.21,2.93-7.07 c1.86-1.859,4.439-2.93,7.07-2.93c2.64,0,5.21,1.07,7.069,2.93c1.87,1.86,2.931,4.44,2.931,7.07s-1.061,5.21-2.931,7.07 C320.91,303.02,318.34,304.09,315.7,304.09z" fill="#444B54"/> </g> <g> <line fill="#3C74BA" x1="340.811" x2="340.811" y1="294.092" y2="294.092"/> <path d="M340.81,304.09c-2.63,0-5.21-1.07-7.069-2.93c-1.86-1.86-2.931-4.431-2.931-7.07 c0-2.63,1.07-5.21,2.931-7.07c1.859-1.859,4.439-2.93,7.069-2.93s5.21,1.07,7.07,2.93c1.86,1.86,2.93,4.44,2.93,7.07 s-1.069,5.21-2.93,7.07C346.02,303.02,343.439,304.09,340.81,304.09z" fill="#444B54"/> </g> <g> <path d="M317.689,318.313c0,6.742,5.465,12.205,12.209,12.205c6.74,0,12.205-5.463,12.205-12.205H317.689z" fill="#3C74BA"/> <path d="M329.898,340.518c-12.246,0-22.209-9.961-22.209-22.205c0-5.522,4.478-10,10-10h24.414 c5.522,0,10,4.478,10,10C352.104,330.557,342.143,340.518,329.898,340.518z" fill="#444B54"/> </g> <g> <path d="M316,161.25c-2.63,0-5.21-1.07-7.07-2.931c-1.86-1.859-2.93-4.439-2.93-7.069 c0-2.641,1.069-5.21,2.93-7.07s4.44-2.93,7.07-2.93s5.21,1.069,7.069,2.93c1.86,1.86,2.931,4.44,2.931,7.07 s-1.07,5.21-2.931,7.069C321.21,160.18,318.63,161.25,316,161.25z" fill="#444B54"/> </g> <g> <line fill="#3C74BA" x1="341.105" x2="341.105" y1="151.248" y2="151.248"/> <path d="M341.109,161.25c-2.63,0-5.21-1.07-7.079-2.931c-1.86-1.859-2.921-4.439-2.921-7.069 c0-2.641,1.061-5.21,2.921-7.07c1.869-1.86,4.439-2.93,7.079-2.93c2.631,0,5.2,1.069,7.07,2.93c1.86,1.86,2.93,4.44,2.93,7.07 s-1.069,5.21-2.93,7.069C346.31,160.18,343.74,161.25,341.109,161.25z" fill="#444B54"/> </g> <g> <path d="M341.811,184.658c0-7.129-5.777-12.906-12.908-12.906c-7.127,0-12.904,5.777-12.904,12.906H341.811z" fill="#3C74BA"/> <path d="M341.811,194.658h-25.813c-5.522,0-10-4.478-10-10c0-12.631,10.274-22.906,22.904-22.906 c12.632,0,22.908,10.275,22.908,22.906C351.811,190.181,347.333,194.658,341.811,194.658z" fill="#444B54"/> </g> <g> <path d="M155.089,416.922h-20.667c-5.523,0-10-4.478-10-10s4.477-10,10-10h20.667c5.523,0,10,4.478,10,10 S160.612,416.922,155.089,416.922z" fill="#444B54"/> </g> <g> <path d="M243.001,421.305c0,8.154-5.373,14.766-12,14.766H58.511c-6.627,0-12-6.611-12-14.766v-24.143 c0-8.156,5.373-14.768,12-14.768h172.49c6.627,0,12,6.611,12,14.768V421.305z" fill="#D9DCE1"/> <path d="M231.001,446.07H58.511c-12.131,0-22-11.109-22-24.766v-24.143c0-13.657,9.869-24.768,22-24.768h172.49 c12.131,0,22,11.11,22,24.768v24.143C253.001,434.961,243.132,446.07,231.001,446.07z M230.977,392.392l-172.466,0.003 c-0.464,0.12-2,1.788-2,4.768v24.143c0,2.979,1.536,4.646,2.023,4.769l172.453-0.003c0.499-0.143,2.014-1.808,2.014-4.766v-24.143 C233.001,394.183,231.465,392.515,230.977,392.392z" fill="#444B54"/> </g> <g> <path d="M155.089,118.984h-20.667c-5.523,0-10-4.478-10-10s4.477-10,10-10h20.667c5.523,0,10,4.478,10,10 S160.612,118.984,155.089,118.984z" fill="#444B54"/> </g> <g> <path d="M493,170.736h-89.333c-5.522,0-10-4.478-10-10s4.478-10,10-10H493c5.522,0,10,4.478,10,10 S498.522,170.736,493,170.736z" fill="#444B54"/> </g> <g> <path d="M437,208.736h-33.333c-5.522,0-10-4.478-10-10s4.478-10,10-10H437c5.522,0,10,4.478,10,10 S442.522,208.736,437,208.736z" fill="#444B54"/> </g> <g> <path d="M493,309.313h-89.333c-5.522,0-10-4.478-10-10s4.478-10,10-10H493c5.522,0,10,4.478,10,10 S498.522,309.313,493,309.313z" fill="#444B54"/> </g> <g> <path d="M437,347.313h-33.333c-5.522,0-10-4.478-10-10s4.478-10,10-10H437c5.522,0,10,4.478,10,10 S442.522,347.313,437,347.313z" fill="#444B54"/> </g> </g> </g>
</svg>